<svg xmlns="http://www.w3.org/2000/svg" viewBox="0 0 1600 447" fill="none">
<g transform="translate(0.000000,447.000000) scale(0.100000,-0.100000)"
fill="currentColor" stroke="none">
<path d="M8514 3927 c-100 -26 -189 -94 -258 -199 -20 -29 -71 -134 -114 -233 -262 -595 -439 -1199 -506 -1723 -27 -206 -40 -498 -27 -564 23 -111 90 -167 226 -188 112 -18 191 1 234 56 42 54 52 116 61 384 5 140 12 285 16 322 l7 68 22 -18 c12 -9 76 -62 141 -117 364 -307 830 -616 1189 -791 323 -157 508 -201 670 -159 115 30 177 93 197 202 29 156 -45 273 -191 304 -85 18 -168 39 -197 49 l-25 10 24 32 c110 147 145 346 169 961 l12 317 268 0 268 0 0 -740 0 -740 265 0 265 0 0 970 0 970 -774 0 c-696 0 -774 -2 -780 -16 -3 -9 -6 -77 -6 -152 0 -188 -18 -659 -30 -801 -32 -373 -105 -500 -287 -501 -68 0 -54 -6 -273 123 -175 104 -480 304 -479 314 0 4 44 40 97 78 126 91 418 382 552 550 198 248 329 473 338 580 7 81 -4 118 -50 170 -60 68 -142 105 -232 105 -152 0 -186 -37 -517 -560 -169 -267 -255 -393 -356 -517 -72 -89 -155 -159 -176 -146 -33 20 89 387 237 710 68 149 134 269 258 474 105 173 126 231 109 296 -15 55 -43 88 -93 107 -55 23 -189 29 -254 13z"/>
<path d="M15107 3913 c-54 -12 -146 -26 -205 -32 -59 -6 -238 -25 -399 -41 -209 -22 -324 -38 -406 -59 -372 -94 -595 -315 -711 -704 -55 -184 -76 -362 -76 -649 0 -299 36 -506 123 -712 59 -139 119 -227 225 -327 189 -180 397 -254 702 -253 293 2 503 81 688 258 95 91 149 165 197 270 94 202 119 501 61 729 -45 174 -105 277 -235 399 -173 163 -422 237 -701 209 -226 -24 -389 -89 -523 -210 l-40 -36 8 55 c32 252 148 414 341 479 75 25 232 46 499 66 110 8 249 20 310 26 116 12 233 42 241 62 2 7 3 120 2 252 l-3 240 -98 -22z m-598 -1412 c124 -39 209 -112 263 -228 56 -119 50 -295 -13 -422 -45 -91 -108 -155 -194 -197 -239 -118 -532 -32 -640 189 -26 54 -55 170 -55 222 0 49 28 164 51 212 49 102 166 194 290 227 79 22 224 20 298 -3z"/>
<path d="M7600 3579 c-66 -13 -144 -55 -181 -97 -18 -20 -47 -68 -65 -107 -53 -116 -151 -466 -234 -841 -20 -93 -45 -184 -53 -200 -21 -41 -88 -100 -134 -119 -46 -19 -546 -146 -552 -140 -5 5 20 106 133 550 102 402 121 503 107 581 -15 81 -42 118 -109 151 -52 26 -66 28 -172 28 -104 0 -119 -2 -160 -25 -66 -37 -86 -73 -93 -172 -8 -101 -35 -219 -129 -575 l-72 -272 -17 70 c-33 129 -90 227 -189 328 -110 112 -271 201 -448 248 -87 24 -116 26 -287 27 -202 1 -212 0 -520 -63 -104 -22 -224 -43 -266 -49 -134 -17 -164 -54 -164 -207 0 -105 11 -141 59 -193 45 -50 94 -67 196 -66 83 0 120 7 286 53 233 63 279 71 414 71 127 0 224 -19 307 -61 62 -30 113 -81 113 -112 0 -25 -27 -34 -130 -41 -694 -52 -1254 -225 -1507 -468 l-62 -60 4 33 c3 19 12 97 20 174 50 447 84 607 190 889 36 96 38 222 5 291 -41 85 -132 122 -275 110 -116 -9 -213 -34 -460 -120 -427 -147 -710 -223 -1231 -329 -470 -96 -688 -162 -905 -272 -246 -125 -361 -280 -361 -487 -1 -173 91 -277 246 -277 85 0 153 45 242 161 78 102 233 188 503 280 130 45 371 115 458 134 l33 7 -66 -194 c-177 -522 -391 -966 -552 -1148 -22 -25 -64 -59 -93 -74 -101 -54 -146 -115 -156 -210 -18 -178 183 -307 396 -252 258 66 444 318 626 846 87 255 298 958 325 1085 7 33 18 65 24 71 6 6 88 33 181 59 94 26 246 72 339 102 92 30 170 52 172 50 7 -7 -108 -571 -165 -812 -46 -195 -102 -399 -168 -605 -22 -70 -27 -105 -27 -195 -1 -95 2 -116 21 -151 27 -51 80 -98 130 -115 62 -22 190 -17 239 8 95 50 180 175 222 328 19 68 20 69 31 41 21 -51 94 -147 145 -187 65 -52 172 -104 271 -131 70 -19 106 -22 295 -22 189 -1 228 2 324 22 432 93 811 353 1045 717 23 35 31 42 27 25 -46 -220 -66 -437 -47 -506 15 -57 70 -117 133 -144 57 -25 195 -38 263 -26 87 17 133 112 160 329 17 135 35 182 83 214 21 14 131 45 310 88 152 37 284 69 293 71 33 9 50 -23 42 -79 -4 -29 -7 -113 -8 -187 0 -160 15 -216 73 -273 50 -48 106 -67 206 -67 137 0 199 47 226 173 5 27 15 124 20 215 13 209 47 444 105 733 74 360 140 623 195 779 28 80 68 190 87 245 65 183 41 302 -70 344 -33 13 -133 13 -197 0z m-2239 -1639 c45 -25 2 -94 -122 -194 -247 -199 -539 -329 -798 -355 -188 -20 -314 24 -341 119 -12 40 4 74 55 119 130 114 556 243 992 301 167 22 189 23 214 10z"/>
<path d="M12055 3124 c-251 -39 -438 -144 -545 -307 -41 -64 -82 -175 -94 -259 l-7 -48 270 0 271 0 16 40 c35 87 132 137 284 147 145 10 274 -39 333 -125 28 -40 57 -136 57 -189 l0 -33 -227 0 c-354 0 -532 -21 -682 -81 -233 -93 -354 -276 -354 -534 0 -177 49 -300 164 -417 141 -141 379 -209 624 -179 194 24 318 76 427 181 l68 65 0 -90 c0 -49 3 -100 6 -112 l6 -23 239 0 239 0 0 584 c0 740 -10 850 -91 1016 -49 99 -158 216 -249 268 -75 42 -218 88 -313 101 -106 15 -332 12 -442 -5z m580 -1171 c-9 -94 -22 -139 -58 -207 -74 -139 -269 -227 -438 -198 -88 15 -137 40 -182 93 -65 75 -68 187 -6 262 42 51 137 95 229 106 41 5 162 9 268 10 l194 1 -7 -67z"/>
</g>
</svg>
